<svg width="100%" height="100%" xmlns="http://www.w3.org/2000/svg">
    <style>
        :root {
            --logo-green: #8EF000;
            --stroke: 0.534149;
        }
        .pathProps {
            display: inline;
            stroke-width: var(--stroke);
            stroke-linecap: butt;
            stroke-linejoin: miter;
            stroke-dasharray: none;
            stroke-opacity: 1;
            
            fill-opacity: 1;
            fill-rule: evenodd;
            stroke: none;
            stroke-width: --stroke;
            fill: var(--logo-green);
            filter: url(#shadow);
        }
    </style>
    <defs>
        <filter id="shadow">
            <feDropShadow dx="2" dy="2" stdDeviation="2" flood-color="#000">
            </feDropShadow>
        </filter>
    </defs>
    <g>
        <path class="pathProps" d="m 11.637561,141.65364 47.773277,-37.75525 31.598527,19.04057 V 107.69861 L 71.19689,97.538267 l 22.860545,-5.080121 2.540044,1.016043 v 29.972771 l 38.608841,-11.17637 -11.68426,-12.19227 -24.384503,8.12824 V 93.474189 l 8.636153,-1.524041 17.43518,1.524041 14.63061,14.488461 19.0198,-38.304053 -15.52467,-0.0609 -10.66837,24.384557 -11.17612,-10.160225 5.58795,-13.208324 h -9.14421 l -4.06403,7.620176 -8.12824,-6.604143 1.52415,-7.620189 8.65629,-0.447019 -5.10028,-11.237235 12.70029,-6.096142 5.58813,17.272398 h 30.48069 l -10.66812,-32.512767 -13.71644,8.636214 7.6203,22.352524 -1.88992,0.04751 -7.76224,-22.908125 16.76426,-10.668241 11.68432,36.576854 h -33.52876 l -5.58818,-16.764402 -9.65216,4.572103 5.58813,12.192299 -9.89612,0.426838 -1.28019,5.730275 6.09613,4.511133 3.55603,-6.604163 h 12.70028 l -6.09614,14.224333 8.6362,7.965422 10.1604,-23.205768 h 19.30438 l -21.33648,42.6731 -16.25655,-15.748474 -16.2563,-1.52403 -7.23409,1.320911 0.122,11.379373 23.36839,-7.620187 14.22439,14.224287 -43.180951,12.70027 V 94.998197 L 93.468266,94.348054 75.768995,98.046268 93.021247,106.68239 92.777318,126.21062 59.451656,106.09318 10.695538,144.454 Z" />
        <path class="pathProps" d="M 11.47658,132.48803 38.684141,109.22252 25.983843,69.597629 45.288301,70.105621 53.416491,98.046289 68.65684,87.88604 63.576713,70.639482 73.736967,70.613604 78.309073,83.313907 91.009365,79.757823 86.43726,71.12164 74.631029,63.582618 27.365748,63.64356 44.252106,27.351435 55.956541,38.608849 45.288301,61.977414 h 17.780415 l 5.588124,-12.7003 5.080127,5.080101 10.16022,-2.601022 9.144235,-4.511131 V 33.02077 L 71.379834,44.603255 61.849584,35.56082 92.569549,20.095571 V 2.2569411 L 141.95261,22.291551 128.60224,30.480717 95.581471,17.780419 v 16.764384 l 16.959779,4.9887 -16.021276,6.854882 -0.163603,1.995407 L 117.4259,39.116906 97.105479,33.020768 V 20.32047 L 128.60224,32.512751 145.87468,21.844505 91.009365,0 V 18.796436 L 59.004608,35.05282 71.19689,46.737083 91.517357,35.56082 V 46.229085 L 83.389189,50.29317 74.24496,52.833221 68.148825,46.737083 62.052679,60.453418 H 47.828347 L 57.988599,38.100895 43.764267,24.38458 24.459807,65.533521 H 74.24496 l 11.176267,7.112178 3.190216,6.035162 -9.286362,2.601028 -4.572105,-12.192282 H 61.544686 L 66.624789,87.378024 54.432507,95.506222 46.812335,68.581586 23.95179,68.073594 36.652088,108.71456 8.85,132.94964 Z" />
        <path class="pathProps" d="m 163.83386,14.959182 c 0,0 -9.98412,6.917341 -18.54845,11.538673 -13.40789,7.856488 -27.12863,14.406742 -39.5438,19.73123 -8.485218,3.622658 -13.060369,5.200122 -18.796352,7.112155 l -9.65221,2.540049 -9.652227,2.032051 3.556069,2.032062 9.652227,5.080117 c 3.901048,2.286733 7.525452,4.965038 11.176262,7.62018 1.521508,1.726017 3.292805,3.142232 5.080127,4.5721 1.524035,1.524036 3.048074,3.048071 4.572074,4.572106 -3.285577,0.351623 -4.535717,0.571474 -8.128166,1.016013 -4.199111,0.580416 -8.193184,1.715055 -12.192276,3.048076 -2.709407,1.016032 -5.41879,2.032046 -8.128191,3.048089 -3.2954,1.360679 -5.812857,2.761303 -9.216649,4.572106 -4.13074,2.694385 -7.629243,4.671115 -10.595807,7.112141 l -4.572104,3.55601 -10.668265,9.14422 -13.208292,11.68431 -13.308747,11.11406 -0.05188,1.91136 2.69228,-2.35706 15.240361,-12.70027 9.144207,-7.6203 9.144206,-7.1121 c 4.350853,-2.9611 8.746217,-5.84741 13.208324,-8.636233 4.033343,-2.477809 7.342162,-3.959855 11.684254,-5.588141 5.563335,-2.381495 12.100444,-3.154498 17.272403,-4.064089 l 9.144234,-1.016014 c 5.266318,-0.206107 10.500078,0.158112 15.748338,0.507993 4.0332,0.37491 8.34864,1.403188 11.68432,2.540072 L 88.977249,59.43738 l 12.700321,-5.588119 12.19228,-6.096142 6.09614,-3.556087 6.60414,-4.064086 c 10.48578,-6.596665 25.3243,-15.896917 37.33717,-23.989459 z" />
    </g>
</svg>